<svg width="190" height="186" viewBox="0 0 190 186" fill="none" xmlns="http://www.w3.org/2000/svg">
<g clip-path="url(#clip0_2051_351)">
<path d="M132.268 135.59H57.1068C40.5792 135.59 27.181 122.192 27.181 105.664V30.5025C27.181 13.9746 40.5792 0.57695 57.1068 0.57695H132.268C148.796 0.57695 162.194 13.9746 162.194 30.5025V105.664C162.194 122.192 148.796 135.59 132.268 135.59Z" fill="#DAFF01"/>
<path d="M120.982 48.2945H48.1353V46.2964C48.1353 35.1086 57.2051 26.0393 68.3932 26.0393H141.24V28.0374C141.24 39.2251 132.17 48.2945 120.982 48.2945Z" fill="black"/>
<path d="M141.239 56.9575C141.239 63.103 138.747 68.6659 134.719 72.6907C130.694 76.7202 125.128 79.2103 118.985 79.2103H48.1359C48.1359 73.0683 50.627 67.5019 54.6555 63.4771C58.6806 59.4476 64.2431 56.9575 70.3896 56.9575H141.239Z" fill="black"/>
<path d="M70.3913 87.8722C58.0997 87.8722 48.1353 97.8363 48.1353 110.127H70.3913V87.8722Z" fill="black"/>
<path d="M11.7229 166.947V154.641H28.1937V151.46H11.7229V150.947C11.7229 150.599 11.8433 150.318 12.1017 150.069C12.3425 149.837 12.6353 149.721 12.9793 149.721H28.1937V146.541H7.78181C6.69743 146.541 5.78503 146.905 5.01066 147.651C4.2363 148.396 3.84029 149.291 3.84029 150.334V150.599C3.84029 150.914 3.8403 151.212 3.85749 151.46H0.277588V154.641H3.84029V166.947H11.7229Z" fill="black"/>
<path d="M40.4208 166.947V151.46H30.8347C31.3854 151.775 31.781 152.14 32.0395 152.537C32.2802 152.951 32.435 153.382 32.4866 153.829C32.5386 154.293 32.5558 154.757 32.5558 155.22V166.947H40.4208Z" fill="black"/>
<path d="M73.6972 166.947V163.767H54.9544C54.6105 163.767 54.3176 163.651 54.0769 163.403C53.8189 163.154 53.6981 162.873 53.6981 162.542V155.866C53.6981 155.519 53.8189 155.237 54.0769 154.989C54.3176 154.757 54.6105 154.641 54.9544 154.641H73.6972V151.46H44.1119C44.6627 151.775 45.0583 152.123 45.3167 152.521C45.5575 152.934 45.7123 153.365 45.7639 153.812C45.8155 154.26 45.8331 154.707 45.8331 155.154V163.138C45.8331 164.181 46.2287 165.076 47.003 165.821C47.7778 166.567 48.6898 166.947 49.7742 166.947H73.6972Z" fill="black"/>
<path d="M107.301 166.947V155.27C107.301 154.227 106.922 153.316 106.165 152.57C105.39 151.825 104.461 151.46 103.376 151.46H86.6131V146.541H77.0265C77.5773 146.856 77.9728 147.204 78.2313 147.601C78.472 148.015 78.6268 148.446 78.6789 148.893C78.7305 149.34 78.7477 149.787 78.7477 150.235V166.947H86.6131V154.641H98.1788C98.5227 154.641 98.8155 154.757 99.0735 154.989C99.3143 155.237 99.4351 155.519 99.4351 155.866V166.947H107.301Z" fill="black"/>
<path d="M140.749 166.947V155.27C140.749 154.227 140.37 153.316 139.596 152.57C138.821 151.825 137.909 151.46 136.824 151.46H112.471V154.641H131.627C131.971 154.641 132.264 154.757 132.522 155.005C132.763 155.253 132.883 155.535 132.883 155.866V156.761H116.137C115.053 156.761 114.123 157.125 113.349 157.871C112.574 158.616 112.196 159.527 112.196 160.57V163.138C112.196 164.181 112.574 165.076 113.349 165.821C114.123 166.567 115.053 166.947 116.137 166.947H140.749ZM132.883 163.767H121.318C120.973 163.767 120.681 163.651 120.44 163.403C120.182 163.154 120.061 162.873 120.061 162.542V161.167C120.061 160.835 120.182 160.554 120.44 160.305C120.681 160.074 120.973 159.957 121.318 159.957H132.883V163.767Z" fill="black"/>
<path d="M151.152 174.775C152.236 174.775 153.165 174.394 153.939 173.649C154.714 172.904 155.093 172.026 155.093 170.982V152.205H145.507C146.057 152.519 146.453 152.884 146.711 153.298C146.952 153.712 147.107 154.143 147.158 154.607C147.21 155.07 147.227 155.518 147.227 155.965V168.205C147.227 168.553 147.107 170.999 146.866 171.231C146.608 171.479 146.315 171.595 145.954 171.595H139.741V174.775H151.152Z" fill="black"/>
<path fill-rule="evenodd" clip-rule="evenodd" d="M155.076 147.311H148.98C147.087 147.311 145.55 148.848 145.55 150.741H151.645C153.539 150.741 155.076 149.204 155.076 147.311Z" fill="black"/>
<path d="M188.575 166.947V163.767H169.661C169.317 163.767 169.024 163.651 168.783 163.403C168.525 163.154 168.404 162.873 168.404 162.542V161.167H185.151C186.235 161.167 187.164 160.786 187.939 160.041C188.713 159.295 189.092 158.417 189.092 157.374V155.27C189.092 154.227 188.713 153.316 187.939 152.57C187.164 151.825 186.235 151.46 185.151 151.46H158.818C159.575 151.908 160.057 152.438 160.264 153.051C160.453 153.597 160.539 154.144 160.539 154.69V163.138C160.539 164.181 160.918 165.076 161.692 165.821C162.467 166.567 163.379 166.947 164.463 166.947H188.575ZM179.97 157.986H168.404V154.641H179.97C180.314 154.641 180.607 154.757 180.865 155.005C181.106 155.253 181.226 155.535 181.226 155.866V156.761C181.226 157.109 181.106 157.39 180.865 157.622C180.607 157.871 180.314 157.986 179.97 157.986Z" fill="black"/>
<path fill-rule="evenodd" clip-rule="evenodd" d="M40.4337 146.561H33.9023C32.0091 146.561 30.4723 148.097 30.4723 149.991H37.0037C38.8969 149.991 40.4337 148.454 40.4337 146.561Z" fill="black"/>
</g>
<defs>
<clipPath id="clip0_2051_351">
<rect width="190" height="186" fill="white"/>
</clipPath>
</defs>
</svg>
